<svg xmlns="http://www.w3.org/2000/svg" xmlns:xlink="http://www.w3.org/1999/xlink" width="500" zoomAndPan="magnify" viewBox="0 0 375 374.999991" height="500" preserveAspectRatio="xMidYMid meet" version="1.0"><defs><g/><clipPath id="bcc3514293"><rect x="0" width="142" y="0" height="286"/></clipPath><clipPath id="6eda4ac5b0"><rect x="0" width="145" y="0" height="287"/></clipPath><clipPath id="3728b4631f"><path d="M 105.28125 233 L 161 233 L 161 289 L 105.28125 289 Z M 105.28125 233 " clip-rule="nonzero"/></clipPath><clipPath id="2b94ab2528"><path d="M 132 212.667969 L 154 212.667969 L 154 234 L 132 234 Z M 132 212.667969 " clip-rule="nonzero"/></clipPath><clipPath id="3cab79b18d"><path d="M 154 227 L 180.28125 227 L 180.28125 255 L 154 255 Z M 154 227 " clip-rule="nonzero"/></clipPath></defs><g transform="matrix(1, 0, 0, 1, 167, 63)"><g clip-path="url(#bcc3514293)"><g fill="#000000" fill-opacity="1"><g transform="translate(0.961679, 185.127615)"><g><path d="M 42.765625 -18.59375 L 73.4375 -18.59375 C 85.09375 -18.59375 93.648438 -21.1875 99.109375 -26.375 C 104.566406 -31.570312 107.296875 -39.46875 107.296875 -50.0625 C 107.296875 -60.664062 104.566406 -68.5625 99.109375 -73.75 C 93.648438 -78.945312 85.09375 -81.546875 73.4375 -81.546875 L 42.765625 -81.546875 Z M 5.5625 0 C 8.632812 -1.0625 11.046875 -2.203125 12.796875 -3.421875 C 14.546875 -4.640625 15.789062 -6.410156 16.53125 -8.734375 C 17.269531 -11.066406 17.640625 -14.40625 17.640625 -18.75 L 17.640625 -81.390625 C 17.640625 -85.734375 17.269531 -89.066406 16.53125 -91.390625 C 15.789062 -93.722656 14.546875 -95.523438 12.796875 -96.796875 C 11.046875 -98.066406 8.632812 -99.179688 5.5625 -100.140625 L 80.265625 -100.140625 C 98.179688 -100.140625 111.347656 -95.738281 119.765625 -86.9375 C 128.191406 -78.144531 132.40625 -65.851562 132.40625 -50.0625 C 132.40625 -34.382812 128.191406 -22.117188 119.765625 -13.265625 C 111.347656 -4.421875 98.179688 0 80.265625 0 Z M 5.5625 0 "/></g></g></g></g></g><g transform="matrix(1, 0, 0, 1, 71, 38)"><g clip-path="url(#6eda4ac5b0)"><g fill="#000000" fill-opacity="1"><g transform="translate(0.55565, 185.504091)"><g><path d="M 5.5625 0 C 8.632812 -1.0625 11.046875 -2.203125 12.796875 -3.421875 C 14.546875 -4.640625 15.789062 -6.410156 16.53125 -8.734375 C 17.269531 -11.066406 17.640625 -14.40625 17.640625 -18.75 L 17.640625 -81.390625 C 17.640625 -85.734375 17.269531 -89.066406 16.53125 -91.390625 C 15.789062 -93.722656 14.546875 -95.523438 12.796875 -96.796875 C 11.046875 -98.066406 8.632812 -99.179688 5.5625 -100.140625 L 49.28125 -100.140625 L 101.578125 -27.5 L 101.578125 -81.390625 C 101.578125 -85.734375 101.203125 -89.066406 100.453125 -91.390625 C 99.710938 -93.722656 98.46875 -95.523438 96.71875 -96.796875 C 94.96875 -98.066406 92.554688 -99.179688 89.484375 -100.140625 L 138.921875 -100.140625 C 135.847656 -99.179688 133.410156 -98.066406 131.609375 -96.796875 C 129.804688 -95.523438 128.535156 -93.722656 127.796875 -91.390625 C 127.054688 -89.066406 126.6875 -85.734375 126.6875 -81.390625 L 126.6875 -18.75 C 126.6875 -14.40625 127.054688 -11.066406 127.796875 -8.734375 C 128.535156 -6.410156 129.804688 -4.640625 131.609375 -3.421875 C 133.410156 -2.203125 135.847656 -1.0625 138.921875 0 L 94.09375 0 L 42.765625 -71.375 L 42.765625 -18.75 C 42.765625 -14.40625 43.132812 -11.066406 43.875 -8.734375 C 44.613281 -6.410156 45.882812 -4.640625 47.6875 -3.421875 C 49.488281 -2.203125 51.925781 -1.0625 55 0 Z M 5.5625 0 "/></g></g></g></g></g><g clip-path="url(#3728b4631f)"><path fill="#000000" d="M 160.253906 260.75 C 160.191406 260.703125 160.128906 260.660156 160.058594 260.625 L 160.007812 260.597656 C 159.992188 260.589844 159.972656 260.582031 159.957031 260.578125 L 159.90625 260.554688 C 159.886719 260.550781 159.878906 260.546875 159.863281 260.542969 C 155.476562 259.085938 151.105469 257.570312 146.773438 255.953125 C 143.484375 254.742188 140.753906 252.105469 139.445312 248.847656 C 139.347656 248.605469 139.257812 248.355469 139.171875 248.105469 C 138.050781 244.757812 136.601562 240.308594 135.484375 236.9375 C 135.359375 236.558594 134.984375 235.460938 134.867188 235.105469 C 134.867188 235.105469 134.816406 234.949219 134.816406 234.949219 C 134.707031 234.578125 134.457031 234.242188 134.113281 234.042969 C 133.5625 233.714844 132.816406 233.773438 132.324219 234.1875 C 132.136719 234.339844 131.988281 234.539062 131.890625 234.761719 C 131.429688 235.90625 130.980469 237.066406 130.535156 238.214844 C 129.316406 241.371094 128.0625 244.683594 126.878906 247.851562 C 126.320312 249.34375 125.480469 250.726562 124.402344 251.902344 C 123.199219 253.230469 121.703125 254.289062 120.050781 254.988281 C 119.648438 255.160156 118.714844 255.5 118.285156 255.667969 C 114.734375 257.023438 110.113281 258.78125 106.578125 260.140625 C 105.585938 260.542969 105.289062 261.816406 105.976562 262.628906 C 106.160156 262.84375 106.40625 263.007812 106.671875 263.097656 C 111.003906 264.640625 115.425781 266.160156 119.773438 267.648438 C 120.554688 267.917969 121.3125 268.261719 122.027344 268.679688 C 124.195312 269.933594 125.976562 271.855469 127.0625 274.113281 C 127.222656 274.441406 127.371094 274.78125 127.5 275.125 C 129.113281 279.378906 130.691406 283.6875 132.183594 287.988281 C 132.21875 288.082031 132.261719 288.226562 132.300781 288.316406 C 132.570312 288.929688 133.316406 289.167969 133.902344 288.867188 C 134.101562 288.765625 134.269531 288.605469 134.378906 288.410156 L 134.40625 288.359375 C 134.417969 288.339844 134.425781 288.324219 134.433594 288.304688 L 134.457031 288.25 L 134.488281 288.171875 C 136.179688 283.902344 137.949219 279.578125 139.609375 275.300781 C 139.90625 274.546875 140.269531 273.820312 140.699219 273.132812 C 141.765625 271.421875 143.242188 269.96875 144.964844 268.929688 C 145.527344 268.589844 146.113281 268.296875 146.71875 268.042969 C 150.832031 266.460938 155.011719 264.765625 159.089844 263.078125 L 159.683594 262.832031 L 159.832031 262.769531 L 159.90625 262.742188 C 160.089844 262.667969 160.261719 262.550781 160.390625 262.398438 C 160.800781 261.917969 160.742188 261.148438 160.253906 260.75 Z M 160.253906 260.75 " fill-opacity="1" fill-rule="nonzero"/></g><g clip-path="url(#2b94ab2528)"><path fill="#000000" d="M 133.128906 223.984375 C 133.195312 224.042969 133.277344 224.082031 133.359375 224.109375 C 134.59375 224.53125 135.839844 224.933594 137.078125 225.339844 C 137.660156 225.53125 138.21875 225.792969 138.734375 226.125 C 139.902344 226.875 140.84375 227.984375 141.398438 229.261719 C 141.582031 229.695312 141.730469 230.148438 141.890625 230.589844 C 142.214844 231.515625 142.527344 232.445312 142.828125 233.378906 C 142.855469 233.464844 142.90625 233.542969 142.972656 233.609375 C 143.238281 233.863281 143.683594 233.789062 143.855469 233.46875 C 144.386719 232.234375 144.902344 230.996094 145.402344 229.753906 C 146.121094 227.953125 147.53125 226.449219 149.273438 225.601562 C 149.371094 225.554688 149.476562 225.503906 149.578125 225.460938 C 150.246094 225.175781 151.617188 224.582031 152.300781 224.28125 L 153.171875 223.902344 C 153.207031 223.886719 153.261719 223.863281 153.292969 223.847656 C 153.59375 223.707031 153.640625 223.285156 153.378906 223.082031 C 153.335938 223.050781 153.285156 223.023438 153.230469 223.007812 C 151.988281 222.609375 150.753906 222.183594 149.53125 221.726562 C 147.621094 221.027344 146.078125 219.449219 145.394531 217.539062 C 145.34375 217.394531 145.296875 217.246094 145.253906 217.101562 C 144.871094 215.851562 144.480469 214.554688 144.058594 213.320312 C 143.765625 212.667969 142.839844 212.710938 142.589844 213.371094 C 142.230469 214.265625 141.855469 215.257812 141.507812 216.15625 C 141.292969 216.707031 141.089844 217.328125 140.8125 217.847656 C 140.023438 219.382812 138.671875 220.625 137.066406 221.265625 C 135.984375 221.691406 134.421875 222.289062 133.339844 222.71875 C 133.226562 222.761719 133.128906 222.828125 133.042969 222.921875 C 132.765625 223.230469 132.804688 223.730469 133.128906 223.984375 Z M 133.128906 223.984375 " fill-opacity="1" fill-rule="nonzero"/></g><g clip-path="url(#3cab79b18d)"><path fill="#000000" d="M 179.757812 240.523438 C 178.183594 240.039062 176.621094 239.515625 175.078125 238.9375 C 172.703125 238.066406 170.796875 236.078125 169.992188 233.679688 C 169.855469 233.296875 169.617188 232.398438 169.496094 231.988281 C 169.15625 230.820312 168.808594 229.65625 168.4375 228.5 C 168.425781 228.464844 168.410156 228.414062 168.390625 228.375 C 167.953125 227.40625 166.582031 227.476562 166.21875 228.464844 C 165.605469 229.980469 165.015625 231.503906 164.4375 233.035156 C 164.308594 233.367188 164.164062 233.695312 163.996094 234.015625 C 163.171875 235.609375 161.863281 236.949219 160.285156 237.800781 C 160.046875 237.929688 159.800781 238.046875 159.550781 238.152344 C 159.367188 238.230469 158.410156 238.609375 158.195312 238.691406 C 157.34375 239.027344 155.511719 239.746094 154.695312 240.082031 C 154.296875 240.265625 154.039062 240.707031 154.078125 241.148438 C 154.105469 241.566406 154.40625 241.949219 154.804688 242.078125 C 156.355469 242.589844 157.914062 243.074219 159.472656 243.566406 C 160.195312 243.796875 160.890625 244.113281 161.53125 244.515625 C 162.992188 245.433594 164.167969 246.808594 164.855469 248.394531 C 164.910156 248.527344 164.964844 248.664062 165.015625 248.796875 C 165.578125 250.332031 166.089844 251.886719 166.574219 253.445312 C 166.585938 253.480469 166.605469 253.546875 166.621094 253.582031 C 166.828125 254.148438 167.585938 254.269531 167.972656 253.8125 C 168.039062 253.738281 168.089844 253.648438 168.125 253.554688 L 168.1875 253.417969 C 168.820312 251.964844 169.460938 250.511719 170.058594 249.042969 C 170.199219 248.707031 170.359375 248.375 170.535156 248.054688 C 170.710938 247.734375 170.902344 247.421875 171.109375 247.125 C 172.136719 245.664062 173.558594 244.488281 175.183594 243.75 C 176.65625 243.101562 178.246094 242.363281 179.714844 241.699219 L 179.75 241.6875 L 179.773438 241.675781 C 179.863281 241.636719 179.941406 241.578125 180.003906 241.503906 C 180.277344 241.179688 180.15625 240.667969 179.757812 240.523438 Z M 179.757812 240.523438 " fill-opacity="1" fill-rule="nonzero"/></g></svg>