<svg xmlns="http://www.w3.org/2000/svg" xmlns:xlink="http://www.w3.org/1999/xlink" width="500" zoomAndPan="magnify" viewBox="0 0 375 374.999991" height="500" preserveAspectRatio="xMidYMid meet" version="1.0"><defs><g/><clipPath id="7587c04648"><path d="M 0.160156 106 L 124 106 L 124 245 L 0.160156 245 Z M 0.160156 106 " clip-rule="nonzero"/></clipPath><clipPath id="ab45f1a0d8"><rect x="0" width="126" y="0" height="331"/></clipPath><clipPath id="84b694c19b"><rect x="0" width="134" y="0" height="331"/></clipPath></defs><g transform="matrix(1, 0, 0, 1, 164, 0)"><g clip-path="url(#ab45f1a0d8)"><g clip-path="url(#7587c04648)"><g fill="#ffffff" fill-opacity="1"><g transform="translate(5.302281, 239.487406)"><g><path d="M 105.105469 -132.503906 C 106.941406 -132.503906 108.75 -131.957031 110.527344 -130.863281 L 110.640625 -130.792969 L 110.746094 -130.71875 C 112.046875 -129.820312 113.207031 -128.8125 114.222656 -127.695312 L 114.304688 -127.601562 L 114.386719 -127.503906 C 115.335938 -126.339844 116.128906 -125.074219 116.761719 -123.703125 L 112.351562 -121.667969 L 116.617188 -123.992188 C 117.640625 -122.117188 117.957031 -120.21875 117.574219 -118.296875 L 93.292969 -7.46875 L 88.546875 -8.507812 L 93.367188 -7.90625 C 93.160156 -6.261719 92.246094 -4.558594 90.621094 -2.800781 L 87.050781 -6.09375 L 90.902344 -3.132812 C 89.824219 -1.730469 88.460938 -0.464844 86.8125 0.667969 L 84.0625 -3.335938 L 86.976562 0.550781 C 86.230469 1.113281 85.496094 1.605469 84.777344 2.039062 C 84.230469 2.367188 83.660156 2.714844 83.070312 3.085938 L 82.78125 3.265625 L 82.46875 3.402344 C 80.460938 4.296875 78.730469 4.742188 77.277344 4.742188 L -6.035156 4.742188 L 19.289062 -110.859375 L 24.035156 -109.820312 L 20.167969 -106.878906 L 0.660156 -132.503906 Z M 105.105469 -122.789062 L 10.464844 -122.789062 L 10.464844 -127.644531 L 14.328125 -130.589844 L 29.261719 -110.976562 L 4.746094 0.925781 L 0 -0.113281 L 0 -4.972656 L 77.277344 -4.972656 C 77.203125 -4.972656 77.144531 -4.96875 77.113281 -4.964844 C 77.160156 -4.972656 77.230469 -4.988281 77.324219 -5.015625 C 77.640625 -5.105469 78.042969 -5.257812 78.523438 -5.472656 L 80.496094 -1.035156 L 77.921875 -5.152344 C 78.5625 -5.554688 79.179688 -5.933594 79.78125 -6.292969 C 80.210938 -6.550781 80.667969 -6.859375 81.148438 -7.222656 L 81.226562 -7.28125 L 81.308594 -7.335938 C 82.117188 -7.890625 82.746094 -8.464844 83.203125 -9.054688 L 83.335938 -9.230469 L 83.484375 -9.390625 C 83.730469 -9.660156 83.898438 -9.863281 83.984375 -10.003906 C 83.863281 -9.804688 83.777344 -9.507812 83.726562 -9.113281 L 83.753906 -9.332031 L 108.046875 -120.203125 C 108 -119.96875 108 -119.738281 108.039062 -119.519531 C 108.058594 -119.425781 108.074219 -119.363281 108.085938 -119.339844 L 108.007812 -119.484375 L 107.941406 -119.628906 C 107.652344 -120.253906 107.296875 -120.824219 106.867188 -121.351562 L 110.625 -124.425781 L 107.03125 -121.160156 C 106.515625 -121.726562 105.910156 -122.253906 105.214844 -122.730469 L 107.980469 -126.726562 L 105.4375 -122.589844 C 105.273438 -122.6875 105.140625 -122.757812 105.035156 -122.789062 L 105.019531 -122.792969 C 105.046875 -122.789062 105.074219 -122.789062 105.105469 -122.789062 Z M 59.367188 -102 L 42.234375 -23.6875 L 37.488281 -24.722656 L 37.488281 -29.582031 L 60.144531 -29.582031 L 60.144531 -24.722656 L 55.398438 -25.761719 L 72.53125 -104.074219 L 77.277344 -103.035156 L 77.277344 -98.179688 L 54.625 -98.179688 L 54.625 -103.035156 Z M 50.714844 -107.894531 L 83.3125 -107.894531 L 64.054688 -19.867188 L 31.453125 -19.867188 L 49.878906 -104.074219 Z M 50.714844 -107.894531 "/></g></g></g></g><g fill="#000000" fill-opacity="1"><g transform="translate(5.302281, 239.487406)"><g><path d="M 105.109375 -127.640625 C 106.023438 -127.640625 106.984375 -127.335938 107.984375 -126.734375 C 108.984375 -126.035156 109.863281 -125.265625 110.625 -124.421875 C 111.3125 -123.578125 111.890625 -122.660156 112.359375 -121.671875 C 112.816406 -120.828125 112.96875 -120.019531 112.8125 -119.25 L 88.546875 -8.515625 C 88.472656 -7.898438 87.972656 -7.09375 87.046875 -6.09375 C 86.285156 -5.09375 85.289062 -4.171875 84.0625 -3.328125 C 83.445312 -2.867188 82.851562 -2.46875 82.28125 -2.125 C 81.707031 -1.78125 81.113281 -1.414062 80.5 -1.03125 C 79.113281 -0.414062 78.039062 -0.109375 77.28125 -0.109375 L 0 -0.109375 L 24.03125 -109.828125 L 10.46875 -127.640625 Z M 54.625 -103.03125 L 37.484375 -24.71875 L 60.140625 -24.71875 L 77.28125 -103.03125 Z M 54.625 -103.03125 "/></g></g></g></g></g><g transform="matrix(1, 0, 0, 1, 85, 0)"><g clip-path="url(#84b694c19b)"><g fill="#ffffff" fill-opacity="1"><g transform="translate(5.880485, 239.487406)"><g><path d="M 34.152344 4.050781 L -3.960938 4.050781 L 21.242188 -111.546875 L 25.988281 -110.511719 L 22.125 -107.570312 L 2.617188 -133.195312 L 64.058594 -133.195312 L 81.222656 -78.382812 L 76.585938 -76.933594 L 71.839844 -77.960938 L 83.824219 -133.195312 L 125.746094 -133.195312 L 96.46875 0.621094 L 71.5625 19.226562 L 43.144531 -61.167969 L 47.722656 -62.789062 L 52.46875 -61.75 L 38.0625 4.050781 Z M 34.152344 -5.664062 L 34.152344 -0.804688 L 29.410156 -1.84375 L 46.625 -80.476562 L 78.523438 9.765625 L 73.941406 11.382812 L 71.035156 7.492188 L 89.207031 -6.078125 L 92.113281 -2.183594 L 87.367188 -3.222656 L 114.964844 -129.375 L 119.710938 -128.335938 L 119.710938 -123.476562 L 87.742188 -123.476562 L 87.742188 -128.335938 L 92.488281 -127.304688 L 77.441406 -57.957031 L 55.851562 -126.882812 L 60.488281 -128.335938 L 60.488281 -123.476562 L 12.417969 -123.476562 L 12.417969 -128.335938 L 16.285156 -131.277344 L 31.214844 -111.667969 L 6.816406 0.230469 L 2.070312 -0.804688 L 2.070312 -5.664062 Z M 34.152344 -5.664062 "/></g></g></g><g fill="#000000" fill-opacity="1"><g transform="translate(5.880485, 239.487406)"><g><path d="M 34.15625 -0.8125 L 2.0625 -0.8125 L 25.984375 -110.515625 L 12.421875 -128.34375 L 60.484375 -128.34375 L 76.59375 -76.9375 L 87.75 -128.34375 L 119.71875 -128.34375 L 92.109375 -2.1875 L 73.9375 11.390625 L 47.71875 -62.78125 Z M 34.15625 -0.8125 "/></g></g></g></g></g><g fill="#ffffff" fill-opacity="1"><g transform="translate(78.361017, 270.672609)"><g><path d="M 9.75 -5.796875 L 9.75 -12.9375 L 13.046875 -12.9375 L 13.046875 0 L 10.03125 0 L 4.359375 -7.84375 L 4.359375 0 L 1.0625 0 L 1.0625 -12.9375 L 4.78125 -12.9375 Z M 9.75 -5.796875 "/></g></g></g><g fill="#ffffff" fill-opacity="1"><g transform="translate(98.00188, 270.672609)"><g><path d="M 11.390625 0 L 1.0625 0 L 1.0625 -12.9375 L 11.09375 -12.9375 L 11.09375 -9.921875 L 4.546875 -9.921875 L 4.546875 -8.03125 L 10.453125 -8.03125 L 10.453125 -5.046875 L 4.546875 -5.046875 L 4.546875 -3.03125 L 11.390625 -3.03125 Z M 11.390625 0 "/></g></g></g><g fill="#ffffff" fill-opacity="1"><g transform="translate(115.32313, 270.672609)"><g><path d="M 8.75 -6.578125 L 12.46875 0 L 8.375 0 L 6.203125 -4.21875 L 4.046875 0 L -0.046875 0 L 3.671875 -6.578125 L 0 -12.9375 L 4.109375 -12.9375 L 6.21875 -8.859375 L 8.3125 -12.9375 L 12.40625 -12.9375 Z M 8.75 -6.578125 "/></g></g></g><g fill="#ffffff" fill-opacity="1"><g transform="translate(133.281827, 270.672609)"><g><path d="M 9.75 -4.984375 L 6.796875 -4.984375 L 6.796875 -7.53125 L 13.34375 -7.53125 L 13.34375 0 L 11.75 0 L 10.5625 -3.390625 C 10.300781 -2.210938 9.757812 -1.304688 8.9375 -0.671875 C 8.125 -0.046875 7.140625 0.265625 5.984375 0.265625 C 4.921875 0.265625 3.972656 0.015625 3.140625 -0.484375 C 2.304688 -0.984375 1.644531 -1.703125 1.15625 -2.640625 C 0.675781 -3.585938 0.4375 -4.707031 0.4375 -6 L 0.4375 -6.828125 C 0.4375 -8.128906 0.695312 -9.253906 1.21875 -10.203125 C 1.75 -11.160156 2.507812 -11.898438 3.5 -12.421875 C 4.5 -12.941406 5.6875 -13.203125 7.0625 -13.203125 C 8.375 -13.203125 9.484375 -12.984375 10.390625 -12.546875 C 11.296875 -12.109375 11.992188 -11.53125 12.484375 -10.8125 C 12.984375 -10.09375 13.269531 -9.300781 13.34375 -8.4375 L 9.5625 -8.4375 C 9.5 -8.882812 9.257812 -9.273438 8.84375 -9.609375 C 8.425781 -9.953125 7.8125 -10.125 7 -10.125 C 6.101562 -10.125 5.382812 -9.835938 4.84375 -9.265625 C 4.3125 -8.691406 4.046875 -7.847656 4.046875 -6.734375 L 4.046875 -6.203125 C 4.046875 -5.085938 4.3125 -4.242188 4.84375 -3.671875 C 5.375 -3.109375 6.078125 -2.828125 6.953125 -2.828125 C 7.492188 -2.828125 7.960938 -2.929688 8.359375 -3.140625 C 8.765625 -3.347656 9.082031 -3.613281 9.3125 -3.9375 C 9.550781 -4.269531 9.695312 -4.617188 9.75 -4.984375 Z M 9.75 -4.984375 "/></g></g></g><g fill="#ffffff" fill-opacity="1"><g transform="translate(152.869579, 270.672609)"><g><path d="M 11.390625 0 L 1.0625 0 L 1.0625 -12.9375 L 11.09375 -12.9375 L 11.09375 -9.921875 L 4.546875 -9.921875 L 4.546875 -8.03125 L 10.453125 -8.03125 L 10.453125 -5.046875 L 4.546875 -5.046875 L 4.546875 -3.03125 L 11.390625 -3.03125 Z M 11.390625 0 "/></g></g></g><g fill="#ffffff" fill-opacity="1"><g transform="translate(170.190828, 270.672609)"><g><path d="M 9.75 -5.796875 L 9.75 -12.9375 L 13.046875 -12.9375 L 13.046875 0 L 10.03125 0 L 4.359375 -7.84375 L 4.359375 0 L 1.0625 0 L 1.0625 -12.9375 L 4.78125 -12.9375 Z M 9.75 -5.796875 "/></g></g></g><g fill="#ffffff" fill-opacity="1"><g transform="translate(189.841478, 270.672609)"><g/></g></g><g fill="#ffffff" fill-opacity="1"><g transform="translate(201.232106, 270.672609)"><g><path d="M 1.0625 -12.9375 L 6.6875 -12.9375 C 8.050781 -12.9375 9.226562 -12.671875 10.21875 -12.140625 C 11.21875 -11.617188 11.984375 -10.898438 12.515625 -9.984375 C 13.054688 -9.078125 13.328125 -8.039062 13.328125 -6.875 L 13.328125 -6.0625 C 13.328125 -4.894531 13.054688 -3.851562 12.515625 -2.9375 C 11.984375 -2.03125 11.21875 -1.3125 10.21875 -0.78125 C 9.226562 -0.257812 8.050781 0 6.6875 0 L 1.0625 0 Z M 9.734375 -6.140625 L 9.734375 -6.78125 C 9.734375 -7.6875 9.429688 -8.421875 8.828125 -8.984375 C 8.222656 -9.546875 7.363281 -9.828125 6.25 -9.828125 L 4.609375 -9.828125 L 4.609375 -3.09375 L 6.25 -3.09375 C 7.363281 -3.09375 8.222656 -3.375 8.828125 -3.9375 C 9.429688 -4.507812 9.734375 -5.242188 9.734375 -6.140625 Z M 9.734375 -6.140625 "/></g></g></g><g fill="#ffffff" fill-opacity="1"><g transform="translate(220.483425, 270.672609)"><g><path d="M 11.390625 0 L 1.0625 0 L 1.0625 -12.9375 L 11.09375 -12.9375 L 11.09375 -9.921875 L 4.546875 -9.921875 L 4.546875 -8.03125 L 10.453125 -8.03125 L 10.453125 -5.046875 L 4.546875 -5.046875 L 4.546875 -3.03125 L 11.390625 -3.03125 Z M 11.390625 0 "/></g></g></g><g fill="#ffffff" fill-opacity="1"><g transform="translate(237.804675, 270.672609)"><g><path d="M 6.34375 -4.515625 L 9.015625 -12.9375 L 12.703125 -12.9375 L 8.234375 0 L 4.4375 0 L -0.09375 -12.9375 L 3.609375 -12.9375 Z M 6.34375 -4.515625 "/></g></g></g><g fill="#ffffff" fill-opacity="1"><g transform="translate(255.95815, 270.672609)"><g><path d="M 2.4375 -13.203125 C 3.007812 -13.203125 3.46875 -13.023438 3.8125 -12.671875 C 4.15625 -12.316406 4.328125 -11.828125 4.328125 -11.203125 C 4.328125 -10.515625 4.195312 -9.835938 3.9375 -9.171875 C 3.6875 -8.503906 3.351562 -7.898438 2.9375 -7.359375 L 0.96875 -7.359375 C 1.257812 -7.691406 1.523438 -8.046875 1.765625 -8.421875 C 2.003906 -8.796875 2.195312 -9.171875 2.34375 -9.546875 C 1.800781 -9.566406 1.367188 -9.742188 1.046875 -10.078125 C 0.722656 -10.421875 0.5625 -10.851562 0.5625 -11.375 C 0.5625 -11.914062 0.734375 -12.351562 1.078125 -12.6875 C 1.421875 -13.03125 1.875 -13.203125 2.4375 -13.203125 Z M 2.4375 -13.203125 "/></g></g></g><g fill="#ffffff" fill-opacity="1"><g transform="translate(266.2674, 270.672609)"><g><path d="M 0.3125 -4.40625 L 3.890625 -4.40625 C 3.960938 -4.039062 4.085938 -3.726562 4.265625 -3.46875 C 4.441406 -3.207031 4.71875 -3.007812 5.09375 -2.875 C 5.476562 -2.75 5.992188 -2.6875 6.640625 -2.6875 C 7.304688 -2.6875 7.816406 -2.738281 8.171875 -2.84375 C 8.535156 -2.957031 8.789062 -3.097656 8.9375 -3.265625 C 9.082031 -3.429688 9.15625 -3.59375 9.15625 -3.75 C 9.15625 -3.945312 9.09375 -4.117188 8.96875 -4.265625 C 8.84375 -4.421875 8.566406 -4.570312 8.140625 -4.71875 C 7.710938 -4.863281 7.035156 -5.007812 6.109375 -5.15625 C 4.660156 -5.394531 3.53125 -5.703125 2.71875 -6.078125 C 1.90625 -6.453125 1.335938 -6.90625 1.015625 -7.4375 C 0.691406 -7.96875 0.53125 -8.578125 0.53125 -9.265625 C 0.53125 -9.992188 0.726562 -10.65625 1.125 -11.25 C 1.53125 -11.851562 2.148438 -12.328125 2.984375 -12.671875 C 3.828125 -13.023438 4.910156 -13.203125 6.234375 -13.203125 C 7.617188 -13.203125 8.75 -13.003906 9.625 -12.609375 C 10.5 -12.210938 11.15625 -11.664062 11.59375 -10.96875 C 12.039062 -10.28125 12.300781 -9.488281 12.375 -8.59375 L 8.828125 -8.59375 C 8.753906 -9.113281 8.539062 -9.515625 8.1875 -9.796875 C 7.84375 -10.085938 7.222656 -10.234375 6.328125 -10.234375 C 5.441406 -10.234375 4.832031 -10.125 4.5 -9.90625 C 4.175781 -9.6875 4.015625 -9.453125 4.015625 -9.203125 C 4.015625 -9.023438 4.085938 -8.851562 4.234375 -8.6875 C 4.378906 -8.519531 4.679688 -8.359375 5.140625 -8.203125 C 5.609375 -8.046875 6.320312 -7.894531 7.28125 -7.75 C 8.664062 -7.539062 9.742188 -7.25 10.515625 -6.875 C 11.296875 -6.507812 11.847656 -6.0625 12.171875 -5.53125 C 12.503906 -5 12.671875 -4.378906 12.671875 -3.671875 C 12.671875 -2.929688 12.46875 -2.265625 12.0625 -1.671875 C 11.65625 -1.078125 11.015625 -0.601562 10.140625 -0.25 C 9.273438 0.09375 8.144531 0.265625 6.75 0.265625 C 5.257812 0.265625 4.054688 0.0703125 3.140625 -0.3125 C 2.222656 -0.707031 1.539062 -1.253906 1.09375 -1.953125 C 0.644531 -2.660156 0.382812 -3.476562 0.3125 -4.40625 Z M 0.3125 -4.40625 "/></g></g></g></svg>